# xmcd
#
# Track frame offsets:
#   150
#   17398
#   36664
#   52224
#   67770
#   82946
#   110020
#   127286
#   147303
#   163553
#   177206
#   192515
#
# Disc length: 2715 seconds
#
# Revision: 0
# Processed by: cddbd v1.5.2PL0 Copyright (c) Steve Scherf et al.
# Submitted via: uFREEDB ActiveX Control 1.5
#
DISCID=ab0a990c
DTITLE=Carlos and Diego - Acustico: Vem comigo
DYEAR=1900
DGENRE=Pop
TTITLE0=01 Coração só diz te amo - (Carlos and Diego)
TTITLE1=02 Hoje eu sei
TTITLE2=03 A vaca já foi pro brejo
TTITLE3=04 A mor de mais - (Carlos and Diego)
TTITLE4=05 Pagina de amigos 
TTITLE5=06 Pout pourri de pagodes
TTITLE6=07 Por um gole a mais
TTITLE7=08 Cabocla Tereza
TTITLE8=09 Me apaixonei
TTITLE9=Vem comigo - (Carlos and Diego)
TTITLE10=11 Saudade de minha terra
TTITLE11=12 O Campeão
EXTD=
EXTT0=
EXTT1=
EXTT2=
EXTT3=
EXTT4=
EXTT5=
EXTT6=
EXTT7=
EXTT8=
EXTT9=
EXTT10=
EXTT11=
PLAYORDER=
